--2021-01-14 07:07:04--  https://cn-jxnc-cmcc-live-01.bilivideo.com/live-bvc/730840/live_1590370_4064847_1500.m3u8
Resolving cn-jxnc-cmcc-live-01.bilivideo.com (cn-jxnc-cmcc-live-01.bilivideo.com)... 117.169.96.238
Connecting to cn-jxnc-cmcc-live-01.bilivideo.com (cn-jxnc-cmcc-live-01.bilivideo.com)|117.169.96.238|:443... connected.
HTTP request sent, awaiting response... 200 OK
Length: 281 [application/vnd.apple.mpegurl]
Saving to: ‘live.m3u8’

     0K                                                       100% 76.2M=0s

2021-01-14 07:07:04 (76.2 MB/s) - ‘live.m3u8’ saved [281/281]

--2021-01-14 07:07:04--  https://cn-jxnc-cmcc-live-01.bilivideo.com/live-bvc/live_1590370_4064847_1500/1610579205950.ts
Resolving cn-jxnc-cmcc-live-01.bilivideo.com (cn-jxnc-cmcc-live-01.bilivideo.com)... 117.169.96.238
Connecting to cn-jxnc-cmcc-live-01.bilivideo.com (cn-jxnc-cmcc-live-01.bilivideo.com)|117.169.96.238|:443... connected.
HTTP request sent, awaiting response... 200 OK
Length: 1019336 (995K) [video/mp2t]
Saving to: ‘video/1610579205950.ts’

     0K .......... .......... .......... .......... ..........  5%  816K 1s
    50K .......... .......... .......... .......... .......... 10%  102M 1s
   100K .......... .......... .......... .......... .......... 15% 1.61M 1s
   150K .......... .......... .......... .......... .......... 20% 82.0M 0s
   200K .......... .......... .......... .......... .......... 25%  193M 0s
   250K .......... .......... .......... .......... .......... 30% 1.58M 0s
   300K .......... .......... .......... .......... .......... 35%  176M 0s
   350K .......... .......... .......... .......... .......... 40%  181M 0s
   400K .......... .......... .......... .......... .......... 45%  162M 0s
   450K .......... .......... .......... .......... .......... 50%  164M 0s
   500K .......... .......... .......... .......... .......... 55%  170M 0s
   550K .......... .......... .......... .......... .......... 60% 1.69M 0s
   600K .......... .......... .......... .......... .......... 65%  166M 0s
   650K .......... .......... .......... .......... .......... 70% 41.5M 0s
   700K .......... .......... .......... .......... .......... 75%  218M 0s
   750K .......... .......... .......... .......... .......... 80% 1.68M 0s
   800K .......... .......... .......... .......... .......... 85%  169M 0s
   850K .......... .......... .......... .......... .......... 90%  231M 0s
   900K .......... .......... .......... .......... .......... 95%  215M 0s
   950K .......... .......... .......... .......... .....     100%  169M=0.2s

2021-01-14 07:07:04 (5.22 MB/s) - ‘video/1610579205950.ts’ saved [1019336/1019336]

--2021-01-14 07:07:04--  https://cn-jxnc-cmcc-live-01.bilivideo.com/live-bvc/live_1590370_4064847_1500/1610579211938.ts
Reusing existing connection to cn-jxnc-cmcc-live-01.bilivideo.com:443.
HTTP request sent, awaiting response... 200 OK
Length: 1036444 (1012K) [video/mp2t]
Saving to: ‘video/1610579211938.ts’

     0K .......... .......... .......... .......... ..........  4%  174M 0s
    50K .......... .......... .......... .......... ..........  9%  220M 0s
   100K .......... .......... .......... .......... .......... 14%  224M 0s
   150K .......... .......... .......... .......... .......... 19%  194M 0s
   200K .......... .......... .......... .......... .......... 24%  200M 0s
   250K .......... .......... .......... .......... .......... 29%  216M 0s
   300K .......... .......... .......... .......... .......... 34%  222M 0s
   350K .......... .......... .......... .......... .......... 39%  180M 0s
   400K .......... .......... .......... .......... .......... 44%  212M 0s
   450K .......... .......... .......... .......... .......... 49%  217M 0s
   500K .......... .......... .......... .......... .......... 54%  216M 0s
   550K .......... .......... .......... .......... .......... 59%  194M 0s
   600K .......... .......... .......... .......... .......... 64%  227M 0s
   650K .......... .......... .......... .......... .......... 69%  209M 0s
   700K .......... .......... .......... .......... .......... 74%  221M 0s
   750K .......... .......... .......... .......... .......... 79%  155K 0s
   800K .......... .......... .......... .......... .......... 83% 1.58M 0s
   850K .......... .......... .......... .......... .......... 88% 1.58M 0s
   900K .......... .......... .......... .......... .......... 93%  213M 0s
   950K .......... .......... .......... .......... .......... 98% 1.60M 0s
  1000K .......... ..                                         100%  194M=0.4s

2021-01-14 07:07:05 (2.36 MB/s) - ‘video/1610579211938.ts’ saved [1036444/1036444]

--2021-01-14 07:07:05--  https://cn-jxnc-cmcc-live-01.bilivideo.com/live-bvc/live_1590370_4064847_1500/1610579217954.ts
Reusing existing connection to cn-jxnc-cmcc-live-01.bilivideo.com:443.
HTTP request sent, awaiting response... 200 OK
Length: 1009184 (986K) [video/mp2t]
Saving to: ‘video/1610579217954.ts’

     0K .......... .......... .......... .......... ..........  5% 2.60M 0s
    50K .......... .......... .......... .......... .......... 10% 2.50M 0s
   100K .......... .......... .......... .......... .......... 15% 2.74M 0s
   150K .......... .......... .......... .......... .......... 20%  134M 0s
   200K .......... .......... .......... .......... .......... 25% 2.63M 0s
   250K .......... .......... .......... .......... .......... 30% 2.60M 0s
   300K .......... .......... .......... .......... .......... 35% 2.62M 0s
   350K .......... .......... .......... .......... .......... 40%  669K 0s
   400K .......... .......... .......... .......... .......... 45%  892K 0s
   450K .......... .......... .......... .......... .......... 50%  889K 0s
   500K .......... .......... .......... .......... .......... 55%  671K 0s
   550K .......... .......... .......... .......... .......... 60%  884K 0s
   600K .......... .......... .......... .......... .......... 65%  673K 0s
   650K .......... .......... .......... .......... .......... 71%  889K 0s
   700K .......... .......... .......... .......... .......... 76%  675K 0s
   750K .......... .......... .......... .......... .......... 81%  663K 0s
   800K .......... .......... .......... .......... .......... 86%  674K 0s
   850K .......... .......... .......... .......... .......... 91%  886K 0s
   900K .......... .......... .......... .......... .......... 96%  672K 0s
   950K .......... .......... .......... .....                100% 1.82M=0.9s

2021-01-14 07:07:06 (1.03 MB/s) - ‘video/1610579217954.ts’ saved [1009184/1009184]

FINISHED --2021-01-14 07:07:06--
Total wall clock time: 1.8s
Downloaded: 3 files, 2.9M in 1.5s (1.90 MB/s)
ffmpeg version N-100564-gf4bdedd Copyright (c) 2000-2021 the FFmpeg developers
  built with gcc 4.8.5 (GCC) 20150623 (Red Hat 4.8.5-44)
  configuration: 
  libavutil      56. 63.100 / 56. 63.100
  libavcodec     58.115.102 / 58.115.102
  libavformat    58. 65.101 / 58. 65.101
  libavdevice    58. 11.103 / 58. 11.103
  libavfilter     7. 95.100 /  7. 95.100
  libswscale      5.  8.100 /  5.  8.100
  libswresample   3.  8.100 /  3.  8.100
Input #0, mpegts, from 'video/1610579205950.ts':
  Duration: 00:00:06.19, start: 70014.573144, bitrate: 1316 kb/s
  Program 1 
    Stream #0:0[0x100]: Video: h264 (High) ([27][0][0][0] / 0x001B), yuv420p(tv, bt470bg/unknown/unknown, progressive), 1280x720 [SAR 1:1 DAR 16:9], 30 fps, 30 tbr, 90k tbn, 60 tbc
    Stream #0:1[0x101]: Audio: aac (LC) ([15][0][0][0] / 0x000F), 44100 Hz, stereo, fltp, 130 kb/s
Stream mapping:
  Stream #0:0 -> #0:0 (h264 (native) -> mpeg4 (native))
  Stream #0:1 -> #0:1 (aac (native) -> aac (native))
Press [q] to stop, [?] for help
Output #0, mp4, to 'video/1610579205950.mp4':
  Metadata:
    encoder         : Lavf58.65.101
    Stream #0:0: Video: mpeg4 (mp4v / 0x7634706D), yuv420p(tv, bt470bg/unknown/unknown, progressive), 1280x720 [SAR 1:1 DAR 16:9], q=2-31, 200 kb/s, 30 fps, 15360 tbn
    Metadata:
      encoder         : Lavc58.115.102 mpeg4
    Side data:
      cpb: bitrate max/min/avg: 0/0/200000 buffer size: 0 vbv_delay: N/A
    Stream #0:1: Audio: aac (LC) (mp4a / 0x6134706D), 44100 Hz, stereo, fltp, 128 kb/s
    Metadata:
      encoder         : Lavc58.115.102 aac
frame=    7 fps=0.0 q=2.3 size=       0kB time=00:00:00.20 bitrate=   1.8kbits/s dup=6 drop=0 speed=8.11x    frame=  103 fps=0.0 q=31.0 size=     256kB time=00:00:03.40 bitrate= 616.9kbits/s dup=6 drop=0 speed=6.45x    frame=  186 fps=0.0 q=31.0 Lsize=     739kB time=00:00:06.16 bitrate= 981.6kbits/s dup=6 drop=0 speed=7.06x    
video:636kB audio:97kB subtitle:0kB other streams:0kB global headers:0kB muxing overhead: 0.918556%
[aac @ 0x2d31740] Qavg: 742.397
ffmpeg version N-100564-gf4bdedd Copyright (c) 2000-2021 the FFmpeg developers
  built with gcc 4.8.5 (GCC) 20150623 (Red Hat 4.8.5-44)
  configuration: 
  libavutil      56. 63.100 / 56. 63.100
  libavcodec     58.115.102 / 58.115.102
  libavformat    58. 65.101 / 58. 65.101
  libavdevice    58. 11.103 / 58. 11.103
  libavfilter     7. 95.100 /  7. 95.100
  libswscale      5.  8.100 /  5.  8.100
  libswresample   3.  8.100 /  3.  8.100
Input #0, mpegts, from 'video/1610579211938.ts':
  Duration: 00:00:06.20, start: 70020.563900, bitrate: 1336 kb/s
  Program 1 
    Stream #0:0[0x100]: Video: h264 (High) ([27][0][0][0] / 0x001B), yuv420p(tv, bt470bg/unknown/unknown, progressive), 1280x720 [SAR 1:1 DAR 16:9], 30 fps, 30 tbr, 90k tbn, 60 tbc
    Stream #0:1[0x101]: Audio: aac (LC) ([15][0][0][0] / 0x000F), 44100 Hz, stereo, fltp, 130 kb/s
Stream mapping:
  Stream #0:0 -> #0:0 (h264 (native) -> mpeg4 (native))
  Stream #0:1 -> #0:1 (aac (native) -> aac (native))
Press [q] to stop, [?] for help
Output #0, mp4, to 'video/1610579211938.mp4':
  Metadata:
    encoder         : Lavf58.65.101
    Stream #0:0: Video: mpeg4 (mp4v / 0x7634706D), yuv420p(tv, bt470bg/unknown/unknown, progressive), 1280x720 [SAR 1:1 DAR 16:9], q=2-31, 200 kb/s, 30 fps, 15360 tbn
    Metadata:
      encoder         : Lavc58.115.102 mpeg4
    Side data:
      cpb: bitrate max/min/avg: 0/0/200000 buffer size: 0 vbv_delay: N/A
    Stream #0:1: Audio: aac (LC) (mp4a / 0x6134706D), 44100 Hz, stereo, fltp, 128 kb/s
    Metadata:
      encoder         : Lavc58.115.102 aac
frame=    7 fps=0.0 q=2.3 size=       0kB time=00:00:00.23 bitrate=   1.5kbits/s dup=6 drop=0 speed=7.12x    frame=  111 fps=0.0 q=31.0 size=     512kB time=00:00:03.66 bitrate=1144.0kbits/s dup=6 drop=0 speed=6.85x    frame=  186 fps=0.0 q=31.0 Lsize=     772kB time=00:00:06.16 bitrate=1024.9kbits/s dup=6 drop=0 speed=6.79x    
video:669kB audio:96kB subtitle:0kB other streams:0kB global headers:0kB muxing overhead: 0.881482%
[aac @ 0x4013900] Qavg: 534.105
ffmpeg version N-100564-gf4bdedd Copyright (c) 2000-2021 the FFmpeg developers
  built with gcc 4.8.5 (GCC) 20150623 (Red Hat 4.8.5-44)
  configuration: 
  libavutil      56. 63.100 / 56. 63.100
  libavcodec     58.115.102 / 58.115.102
  libavformat    58. 65.101 / 58. 65.101
  libavdevice    58. 11.103 / 58. 11.103
  libavfilter     7. 95.100 /  7. 95.100
  libswscale      5.  8.100 /  5.  8.100
  libswresample   3.  8.100 /  3.  8.100
Input #0, mpegts, from 'video/1610579217954.ts':
  Duration: 00:00:06.21, start: 70026.554644, bitrate: 1299 kb/s
  Program 1 
    Stream #0:0[0x100]: Video: h264 (High) ([27][0][0][0] / 0x001B), yuv420p(tv, bt470bg/unknown/unknown, progressive), 1280x720 [SAR 1:1 DAR 16:9], 30 fps, 30 tbr, 90k tbn, 60 tbc
    Stream #0:1[0x101]: Audio: aac (LC) ([15][0][0][0] / 0x000F), 44100 Hz, stereo, fltp, 130 kb/s
Stream mapping:
  Stream #0:0 -> #0:0 (h264 (native) -> mpeg4 (native))
  Stream #0:1 -> #0:1 (aac (native) -> aac (native))
Press [q] to stop, [?] for help
Output #0, mp4, to 'video/1610579217954.mp4':
  Metadata:
    encoder         : Lavf58.65.101
    Stream #0:0: Video: mpeg4 (mp4v / 0x7634706D), yuv420p(tv, bt470bg/unknown/unknown, progressive), 1280x720 [SAR 1:1 DAR 16:9], q=2-31, 200 kb/s, 30 fps, 15360 tbn
    Metadata:
      encoder         : Lavc58.115.102 mpeg4
    Side data:
      cpb: bitrate max/min/avg: 0/0/200000 buffer size: 0 vbv_delay: N/A
    Stream #0:1: Audio: aac (LC) (mp4a / 0x6134706D), 44100 Hz, stereo, fltp, 128 kb/s
    Metadata:
      encoder         : Lavc58.115.102 aac
frame=    7 fps=0.0 q=2.5 size=       0kB time=00:00:00.20 bitrate=   1.8kbits/s dup=6 drop=0 speed=7.21x    frame=  111 fps=0.0 q=31.0 size=     512kB time=00:00:03.66 bitrate=1143.3kbits/s dup=6 drop=0 speed=6.91x    frame=  186 fps=0.0 q=31.0 Lsize=     809kB time=00:00:06.16 bitrate=1074.7kbits/s dup=6 drop=0 speed=7.29x    
video:705kB audio:97kB subtitle:0kB other streams:0kB global headers:0kB muxing overhead: 0.837351%
[aac @ 0x2faffc0] Qavg: 572.041
Done
video/1610579205950.ts
video/1610579211938.ts
video/1610579217954.ts
